<svg width="13" height="13" viewBox="0 0 13 13" fill="none" xmlns="http://www.w3.org/2000/svg">
<path fill-rule="evenodd" clip-rule="evenodd" d="M8.83924 5.30354C8.83924 7.25625 7.25625 8.83924 5.30354 8.83924C3.35083 8.83924 1.76785 7.25625 1.76785 5.30354C1.76785 3.35083 3.35083 1.76785 5.30354 1.76785C7.25625 1.76785 8.83924 3.35083 8.83924 5.30354ZM8.37656 9.62657C7.50959 10.244 6.44897 10.6071 5.30354 10.6071C2.37448 10.6071 0 8.23261 0 5.30354C0 2.37448 2.37448 0 5.30354 0C8.23261 0 10.6071 2.37448 10.6071 5.30354C10.6071 6.44894 10.244 7.50954 9.62661 8.3765L13 11.7499L11.7499 12.9999L8.37656 9.62657Z" fill="#8F8A8A"/>
</svg>
