<svg width="216" height="58" viewBox="0 0 216 58" fill="none" xmlns="http://www.w3.org/2000/svg">
<path d="M186.056 24.85C186.056 23.5 187.897 22.411 190.309 22.411C192.825 22.411 195.393 23.605 197.13 25.551L200.269 21.711C197.286 19.063 194.251 17.688 190.465 17.688C185.744 17.688 180.869 19.868 180.869 24.85C180.869 30.975 186.159 31.416 190.465 31.78C192.877 31.96 195.004 32.143 195.004 33.726C195.004 35.438 192.566 36.216 190.413 36.216C187.923 36.216 185.226 35.153 183.255 32.791L179.909 36.347C182.58 39.617 186.445 41.044 190.231 41.044C194.978 41.044 200.191 38.786 200.191 33.622C200.191 27.782 194.848 27.212 190.75 26.797C188.182 26.537 186.056 26.304 186.056 24.85ZM162.195 26.304C163.051 24.15 164.892 22.904 167.615 22.904C170.364 22.904 171.998 24.227 172.699 26.304H162.195ZM167.875 17.688C161.391 17.688 156.177 22.748 156.177 29.392C156.177 35.646 160.794 41.044 167.589 41.044C171.687 41.044 175.007 39.071 177.367 35.698L173.788 32.662C172.517 34.608 170.235 35.75 167.511 35.75C164.736 35.75 161.857 33.674 161.624 30.611H178.56V28.795C178.508 22.385 174.151 17.688 167.875 17.688ZM116.53 17.688C110.046 17.688 104.833 22.748 104.833 29.392C104.833 35.646 109.45 41.044 116.245 41.044C120.343 41.044 123.663 39.071 126.023 35.698L122.444 32.662C121.173 34.608 118.891 35.75 116.167 35.75C113.392 35.75 110.513 33.674 110.28 30.611H127.216V28.795C127.19 22.385 122.807 17.688 116.53 17.688ZM148.345 40.239H153.532V18.492H148.345V40.24V40.239ZM153.938 7.90401C151.838 7.90401 147.048 9.66901 147.048 11.874C147.048 14.054 148.786 15.664 151.042 15.664C153.247 15.664 154.855 14.107 154.855 11.953C154.829 9.74701 156.065 7.90401 153.938 7.90401ZM90.75 17.662C88.312 17.662 86.108 18.389 84.24 19.66V8.16401H79.053V29.392C79.053 35.853 84.318 41.044 90.724 41.044C97.182 41.044 102.473 35.88 102.473 29.34C102.447 22.826 97.26 17.662 90.75 17.662ZM63.777 18.025C57.993 18.622 53.272 23.605 53.272 29.548C53.272 35.828 58.642 41.096 64.918 41.096C71.168 41.096 76.563 35.828 76.563 29.548C76.563 26.875 75.603 24.409 74.047 22.463L62.532 8.19001H55.814L63.777 18.025ZM23.576 30.871L18.829 18.492H15.2L10.427 30.871L5.655 18.492H0L8.351 40.292H11.982L16.988 27.316L22.046 40.291H25.676L34.002 18.492H28.374L23.576 30.871ZM135.126 23.449V18.492H129.939V40.24H135.126V31.054C135.126 26.59 139.899 23.865 144.645 23.865V18.493H144.126C140.106 18.493 137.201 19.947 135.126 23.45V23.449ZM45.414 40.239H50.6V8.19001H45.413V40.24L45.414 40.239ZM64.944 35.853C61.364 35.853 58.46 32.973 58.46 29.392C58.46 25.785 61.364 22.904 64.918 22.904C68.523 22.904 71.454 25.784 71.454 29.392C71.454 32.973 68.523 35.853 64.944 35.853ZM90.724 35.853C89.8718 35.8547 89.0276 35.6881 88.24 35.3626C87.4523 35.0372 86.7367 34.5594 86.1342 33.9566C85.5318 33.3539 85.0543 32.6381 84.7292 31.8503C84.4041 31.0625 84.2379 30.2182 84.24 29.366C84.24 25.811 87.015 22.904 90.75 22.904C94.485 22.904 97.26 25.811 97.26 29.34C97.26 33.025 94.303 35.853 90.724 35.853ZM36.414 40.239H41.601V18.492H36.414V40.24V40.239ZM38.956 7.90401C36.855 7.90401 35.091 9.66901 35.091 11.901C35.091 14.159 36.933 15.69 38.956 15.69C41.212 15.69 42.924 13.821 42.924 11.797C42.898 9.74701 41.108 7.90401 38.956 7.90401ZM110.85 26.304C111.732 24.15 113.548 22.904 116.245 22.904C119.02 22.904 120.706 24.227 121.406 26.304H110.85Z" fill="white"/>
<path d="M89.33 15.09C88.9033 15.09 88.5333 14.9833 88.22 14.77C87.9067 14.55 87.6967 14.26 87.59 13.9L87.7 13.72V14.56C87.7 14.72 87.6567 14.8467 87.57 14.94C87.4833 15.0267 87.3633 15.07 87.21 15.07C87.05 15.07 86.9267 15.0267 86.84 14.94C86.7533 14.8467 86.71 14.72 86.71 14.56V8.39C86.71 8.22333 86.7533 8.09667 86.84 8.01C86.9267 7.92333 87.05 7.88 87.21 7.88C87.37 7.88 87.4933 7.92333 87.58 8.01C87.6733 8.09667 87.72 8.22333 87.72 8.39V11.19H87.6C87.7067 10.8367 87.9167 10.5567 88.23 10.35C88.5433 10.1367 88.91 10.03 89.33 10.03C89.77 10.03 90.15 10.1333 90.47 10.34C90.79 10.5467 91.0367 10.8367 91.21 11.21C91.39 11.5833 91.48 12.0333 91.48 12.56C91.48 13.0733 91.39 13.5233 91.21 13.91C91.0367 14.29 90.7867 14.5833 90.46 14.79C90.14 14.99 89.7633 15.09 89.33 15.09ZM89.08 14.31C89.36 14.31 89.6033 14.2433 89.81 14.11C90.0167 13.9767 90.1767 13.78 90.29 13.52C90.4033 13.26 90.46 12.94 90.46 12.56C90.46 11.9867 90.3333 11.5533 90.08 11.26C89.8333 10.9667 89.5 10.82 89.08 10.82C88.8067 10.82 88.5633 10.8867 88.35 11.02C88.1433 11.1467 87.9833 11.34 87.87 11.6C87.7567 11.86 87.7 12.18 87.7 12.56C87.7 13.1267 87.8267 13.56 88.08 13.86C88.3333 14.16 88.6667 14.31 89.08 14.31ZM93.6803 16.87C93.5603 16.87 93.4603 16.8367 93.3803 16.77C93.307 16.71 93.2636 16.6267 93.2503 16.52C93.2436 16.42 93.2636 16.31 93.3103 16.19L93.9903 14.66V15.09L92.1203 10.74C92.0736 10.62 92.057 10.5067 92.0703 10.4C92.0836 10.2933 92.1336 10.21 92.2203 10.15C92.307 10.0833 92.4236 10.05 92.5703 10.05C92.697 10.05 92.797 10.08 92.8703 10.14C92.9436 10.2 93.0103 10.3033 93.0703 10.45L94.5803 14.18H94.3003L95.8303 10.45C95.8903 10.2967 95.9603 10.1933 96.0403 10.14C96.1203 10.08 96.2303 10.05 96.3703 10.05C96.4903 10.05 96.5836 10.0833 96.6503 10.15C96.7236 10.21 96.767 10.2933 96.7803 10.4C96.8003 10.5 96.7836 10.61 96.7303 10.73L94.2303 16.48C94.1636 16.6333 94.087 16.7367 94.0003 16.79C93.9203 16.8433 93.8136 16.87 93.6803 16.87ZM100.972 15.07C100.819 15.07 100.699 15.0267 100.612 14.94C100.532 14.8533 100.492 14.7333 100.492 14.58V8.37C100.492 8.21 100.536 8.09 100.622 8.01C100.709 7.92333 100.826 7.88 100.972 7.88C101.112 7.88 101.219 7.90667 101.292 7.96C101.372 8.00667 101.446 8.09333 101.512 8.22L104.132 13.11H103.822L106.432 8.22C106.499 8.09333 106.569 8.00667 106.642 7.96C106.716 7.90667 106.822 7.88 106.962 7.88C107.109 7.88 107.222 7.92333 107.302 8.01C107.382 8.09 107.422 8.21 107.422 8.37V14.58C107.422 14.7333 107.382 14.8533 107.302 14.94C107.229 15.0267 107.116 15.07 106.962 15.07C106.809 15.07 106.692 15.0267 106.612 14.94C106.532 14.8533 106.492 14.7333 106.492 14.58V9.42H106.712L104.392 13.71C104.339 13.81 104.282 13.8833 104.222 13.93C104.162 13.9767 104.079 14 103.972 14C103.866 14 103.779 13.9767 103.712 13.93C103.646 13.8767 103.586 13.8033 103.532 13.71L101.192 9.41H101.432V14.58C101.432 14.7333 101.392 14.8533 101.312 14.94C101.239 15.0267 101.126 15.07 100.972 15.07ZM110.536 15.09C110.196 15.09 109.889 15.0233 109.616 14.89C109.349 14.7567 109.139 14.5767 108.986 14.35C108.832 14.1233 108.756 13.8667 108.756 13.58C108.756 13.22 108.846 12.9367 109.026 12.73C109.212 12.5167 109.516 12.3667 109.936 12.28C110.362 12.1867 110.936 12.14 111.656 12.14H112.126V12.76H111.666C111.186 12.76 110.806 12.7833 110.526 12.83C110.246 12.8767 110.046 12.9567 109.926 13.07C109.812 13.1767 109.756 13.3267 109.756 13.52C109.756 13.7733 109.842 13.98 110.016 14.14C110.189 14.2933 110.429 14.37 110.736 14.37C110.982 14.37 111.199 14.3133 111.386 14.2C111.572 14.08 111.719 13.92 111.826 13.72C111.939 13.52 111.996 13.29 111.996 13.03V11.88C111.996 11.5 111.916 11.2267 111.756 11.06C111.596 10.8933 111.332 10.81 110.966 10.81C110.752 10.81 110.529 10.8367 110.296 10.89C110.069 10.9433 109.832 11.0333 109.586 11.16C109.472 11.2133 109.376 11.23 109.296 11.21C109.216 11.19 109.152 11.1467 109.106 11.08C109.059 11.0067 109.032 10.93 109.026 10.85C109.026 10.7633 109.046 10.68 109.086 10.6C109.132 10.52 109.209 10.46 109.316 10.42C109.609 10.28 109.899 10.18 110.186 10.12C110.472 10.06 110.742 10.03 110.996 10.03C111.442 10.03 111.809 10.1 112.096 10.24C112.389 10.38 112.606 10.5933 112.746 10.88C112.886 11.1667 112.956 11.5367 112.956 11.99V14.56C112.956 14.72 112.916 14.8467 112.836 14.94C112.756 15.0267 112.639 15.07 112.486 15.07C112.339 15.07 112.222 15.0267 112.136 14.94C112.049 14.8467 112.006 14.72 112.006 14.56V13.91H112.096C112.042 14.1567 111.942 14.37 111.796 14.55C111.656 14.7233 111.479 14.8567 111.266 14.95C111.052 15.0433 110.809 15.09 110.536 15.09ZM116.557 16.89C116.197 16.89 115.847 16.8533 115.507 16.78C115.173 16.7067 114.87 16.5867 114.597 16.42C114.497 16.3667 114.43 16.3 114.397 16.22C114.363 16.1467 114.353 16.07 114.367 15.99C114.387 15.91 114.423 15.84 114.477 15.78C114.53 15.72 114.593 15.68 114.667 15.66C114.747 15.64 114.83 15.6533 114.917 15.7C115.21 15.86 115.487 15.9667 115.747 16.02C116.013 16.08 116.26 16.11 116.487 16.11C116.953 16.11 117.303 15.99 117.537 15.75C117.77 15.5167 117.887 15.17 117.887 14.71V13.69H117.977C117.877 14.0567 117.667 14.3467 117.347 14.56C117.027 14.7733 116.657 14.88 116.237 14.88C115.797 14.88 115.413 14.78 115.087 14.58C114.76 14.3733 114.507 14.09 114.327 13.73C114.147 13.3633 114.057 12.9367 114.057 12.45C114.057 12.0833 114.107 11.7533 114.207 11.46C114.313 11.1667 114.46 10.9133 114.647 10.7C114.84 10.4867 115.07 10.3233 115.337 10.21C115.61 10.09 115.91 10.03 116.237 10.03C116.663 10.03 117.033 10.1367 117.347 10.35C117.667 10.5633 117.873 10.8533 117.967 11.22L117.867 11.39V10.56C117.867 10.3933 117.91 10.2667 117.997 10.18C118.09 10.0933 118.213 10.05 118.367 10.05C118.527 10.05 118.65 10.0933 118.737 10.18C118.823 10.2667 118.867 10.3933 118.867 10.56V14.59C118.867 15.35 118.67 15.9233 118.277 16.31C117.883 16.6967 117.31 16.89 116.557 16.89ZM116.477 14.09C116.77 14.09 117.02 14.0233 117.227 13.89C117.433 13.7567 117.593 13.5667 117.707 13.32C117.82 13.0733 117.877 12.7833 117.877 12.45C117.877 11.95 117.75 11.5533 117.497 11.26C117.25 10.9667 116.91 10.82 116.477 10.82C116.19 10.82 115.943 10.8867 115.737 11.02C115.53 11.1533 115.367 11.3433 115.247 11.59C115.133 11.83 115.077 12.1167 115.077 12.45C115.077 12.9567 115.203 13.3567 115.457 13.65C115.71 13.9433 116.05 14.09 116.477 14.09ZM121.844 15.09C121.504 15.09 121.198 15.0233 120.924 14.89C120.658 14.7567 120.448 14.5767 120.294 14.35C120.141 14.1233 120.064 13.8667 120.064 13.58C120.064 13.22 120.154 12.9367 120.334 12.73C120.521 12.5167 120.824 12.3667 121.244 12.28C121.671 12.1867 122.244 12.14 122.964 12.14H123.434V12.76H122.974C122.494 12.76 122.114 12.7833 121.834 12.83C121.554 12.8767 121.354 12.9567 121.234 13.07C121.121 13.1767 121.064 13.3267 121.064 13.52C121.064 13.7733 121.151 13.98 121.324 14.14C121.498 14.2933 121.738 14.37 122.044 14.37C122.291 14.37 122.508 14.3133 122.694 14.2C122.881 14.08 123.028 13.92 123.134 13.72C123.248 13.52 123.304 13.29 123.304 13.03V11.88C123.304 11.5 123.224 11.2267 123.064 11.06C122.904 10.8933 122.641 10.81 122.274 10.81C122.061 10.81 121.838 10.8367 121.604 10.89C121.378 10.9433 121.141 11.0333 120.894 11.16C120.781 11.2133 120.684 11.23 120.604 11.21C120.524 11.19 120.461 11.1467 120.414 11.08C120.368 11.0067 120.341 10.93 120.334 10.85C120.334 10.7633 120.354 10.68 120.394 10.6C120.441 10.52 120.518 10.46 120.624 10.42C120.918 10.28 121.208 10.18 121.494 10.12C121.781 10.06 122.051 10.03 122.304 10.03C122.751 10.03 123.118 10.1 123.404 10.24C123.698 10.38 123.914 10.5933 124.054 10.88C124.194 11.1667 124.264 11.5367 124.264 11.99V14.56C124.264 14.72 124.224 14.8467 124.144 14.94C124.064 15.0267 123.948 15.07 123.794 15.07C123.648 15.07 123.531 15.0267 123.444 14.94C123.358 14.8467 123.314 14.72 123.314 14.56V13.91H123.404C123.351 14.1567 123.251 14.37 123.104 14.55C122.964 14.7233 122.788 14.8567 122.574 14.95C122.361 15.0433 122.118 15.09 121.844 15.09ZM127.365 15.09C127.072 15.09 126.769 15.0567 126.455 14.99C126.149 14.9233 125.865 14.81 125.605 14.65C125.519 14.59 125.459 14.5233 125.425 14.45C125.392 14.3767 125.379 14.3033 125.385 14.23C125.399 14.15 125.429 14.0833 125.475 14.03C125.529 13.97 125.592 13.9333 125.665 13.92C125.745 13.9067 125.829 13.9233 125.915 13.97C126.175 14.1167 126.425 14.22 126.665 14.28C126.905 14.3333 127.142 14.36 127.375 14.36C127.729 14.36 127.995 14.2967 128.175 14.17C128.355 14.0433 128.445 13.8733 128.445 13.66C128.445 13.4867 128.385 13.3533 128.265 13.26C128.145 13.16 127.965 13.0833 127.725 13.03L126.775 12.84C126.362 12.7533 126.049 12.6 125.835 12.38C125.622 12.16 125.515 11.88 125.515 11.54C125.515 11.2333 125.599 10.9667 125.765 10.74C125.932 10.5133 126.165 10.34 126.465 10.22C126.765 10.0933 127.112 10.03 127.505 10.03C127.799 10.03 128.075 10.0667 128.335 10.14C128.595 10.2133 128.835 10.3233 129.055 10.47C129.142 10.5167 129.199 10.58 129.225 10.66C129.252 10.7333 129.255 10.8067 129.235 10.88C129.222 10.9533 129.189 11.02 129.135 11.08C129.082 11.1333 129.015 11.1667 128.935 11.18C128.862 11.1867 128.779 11.1667 128.685 11.12C128.485 10.9933 128.285 10.9033 128.085 10.85C127.892 10.7967 127.699 10.77 127.505 10.77C127.152 10.77 126.885 10.8367 126.705 10.97C126.532 11.0967 126.445 11.27 126.445 11.49C126.445 11.6567 126.499 11.7933 126.605 11.9C126.712 12.0067 126.879 12.0833 127.105 12.13L128.055 12.32C128.489 12.4067 128.815 12.5533 129.035 12.76C129.262 12.9667 129.375 13.2467 129.375 13.6C129.375 14.06 129.192 14.4233 128.825 14.69C128.459 14.9567 127.972 15.09 127.365 15.09ZM132.619 15.09C132.126 15.09 131.699 14.9867 131.339 14.78C130.986 14.5733 130.709 14.28 130.509 13.9C130.309 13.52 130.209 13.0733 130.209 12.56C130.209 12.1667 130.266 11.8167 130.379 11.51C130.492 11.2033 130.652 10.94 130.859 10.72C131.072 10.4933 131.326 10.3233 131.619 10.21C131.919 10.09 132.252 10.03 132.619 10.03C133.106 10.03 133.526 10.1333 133.879 10.34C134.239 10.5467 134.519 10.84 134.719 11.22C134.919 11.5933 135.019 12.04 135.019 12.56C135.019 12.9467 134.962 13.2967 134.849 13.61C134.736 13.9233 134.572 14.19 134.359 14.41C134.152 14.63 133.899 14.8 133.599 14.92C133.306 15.0333 132.979 15.09 132.619 15.09ZM132.619 14.31C132.892 14.31 133.132 14.2433 133.339 14.11C133.546 13.9767 133.706 13.78 133.819 13.52C133.939 13.26 133.999 12.94 133.999 12.56C133.999 11.9867 133.872 11.5533 133.619 11.26C133.366 10.9667 133.032 10.82 132.619 10.82C132.339 10.82 132.096 10.8867 131.889 11.02C131.682 11.1467 131.519 11.34 131.399 11.6C131.286 11.86 131.229 12.18 131.229 12.56C131.229 13.1267 131.356 13.56 131.609 13.86C131.862 14.16 132.199 14.31 132.619 14.31ZM137.955 15.07C137.815 15.07 137.692 15.0333 137.585 14.96C137.485 14.8867 137.402 14.7733 137.335 14.62L135.665 10.74C135.612 10.62 135.592 10.5067 135.605 10.4C135.619 10.2933 135.669 10.21 135.755 10.15C135.842 10.0833 135.959 10.05 136.105 10.05C136.232 10.05 136.332 10.08 136.405 10.14C136.479 10.2 136.545 10.3033 136.605 10.45L138.115 14.17H137.835L139.375 10.45C139.435 10.3033 139.502 10.2 139.575 10.14C139.655 10.08 139.765 10.05 139.905 10.05C140.025 10.05 140.119 10.0833 140.185 10.15C140.259 10.21 140.302 10.2933 140.315 10.4C140.335 10.5 140.319 10.61 140.265 10.73L138.575 14.62C138.515 14.7733 138.432 14.8867 138.325 14.96C138.219 15.0333 138.095 15.07 137.955 15.07Z" fill="white"/>
</svg>
